# Blender v2.69 (sub 0) OBJ File: ''
# www.blender.org
v 0.000000 -1.000000 -1.000000
v 0.000000 1.000000 -1.000000
v 0.195090 -1.000000 -0.980785
v 0.195090 1.000000 -0.980785
v 0.382683 -1.000000 -0.923880
v 0.382683 1.000000 -0.923880
v 0.555570 -1.000000 -0.831470
v 0.555570 1.000000 -0.831470
v 0.707107 -1.000000 -0.707107
v 0.707107 1.000000 -0.707107
v 0.831470 -1.000000 -0.555570
v 0.831470 1.000000 -0.555570
v 0.923880 -1.000000 -0.382683
v 0.923880 1.000000 -0.382683
v 0.980785 -1.000000 -0.195090
v 0.980785 1.000000 -0.195090
v 1.000000 -1.000000 -0.000000
v 1.000000 1.000000 -0.000000
v 0.980785 -1.000000 0.195090
v 0.980785 1.000000 0.195090
v 0.923880 -1.000000 0.382683
v 0.923880 1.000000 0.382683
v 0.831470 -1.000000 0.555570
v 0.831470 1.000000 0.555570
v 0.707107 -1.000000 0.707107
v 0.707107 1.000000 0.707107
v 0.555570 -1.000000 0.831470
v 0.555570 1.000000 0.831470
v 0.382683 -1.000000 0.923880
v 0.382683 1.000000 0.923880
v 0.195090 -1.000000 0.980785
v 0.195090 1.000000 0.980785
v -0.000000 -1.000000 1.000000
v -0.000000 1.000000 1.000000
v -0.195091 -1.000000 0.980785
v -0.195091 1.000000 0.980785
v -0.382684 -1.000000 0.923879
v -0.382684 1.000000 0.923879
v -0.555571 -1.000000 0.831469
v -0.555571 1.000000 0.831469
v -0.707107 -1.000000 0.707106
v -0.707107 1.000000 0.707106
v -0.831470 -1.000000 0.555570
v -0.831470 1.000000 0.555570
v -0.923880 -1.000000 0.382683
v -0.923880 1.000000 0.382683
v -0.980785 -1.000000 0.195089
v -0.980785 1.000000 0.195089
v -1.000000 -1.000000 -0.000001
v -1.000000 1.000000 -0.000001
v -0.980785 -1.000000 -0.195091
v -0.980785 1.000000 -0.195091
v -0.923879 -1.000000 -0.382684
v -0.923879 1.000000 -0.382684
v -0.831469 -1.000000 -0.555571
v -0.831469 1.000000 -0.555571
v -0.707106 -1.000000 -0.707108
v -0.707106 1.000000 -0.707108
v -0.555569 -1.000000 -0.831470
v -0.555569 1.000000 -0.831470
v -0.382682 -1.000000 -0.923880
v -0.382682 1.000000 -0.923880
v -0.195089 -1.000000 -0.980786
v -0.195089 1.000000 -0.980786
vt 0.758747 0.544079
vt 0.378458 0.544079
vt 0.378458 0.506804
vt 0.758747 0.506804
vt 0.378458 0.470246
vt 0.758747 0.470246
vt 0.378458 0.435808
vt 0.758747 0.435808
vt 0.378458 0.404815
vt 0.758747 0.404815
vt 0.378458 0.378458
vt 1.000000 0.267610
vt 1.000000 0.647899
vt 0.969007 0.647899
vt 0.969007 0.267610
vt 0.934570 0.647899
vt 0.934570 0.267610
vt 0.898011 0.647900
vt 0.898011 0.267610
vt 0.860736 0.647899
vt 0.860736 0.267610
vt 0.824178 0.267610
vt 0.824178 0.647899
vt 0.789740 0.647900
vt 0.789740 0.267610
vt 0.758747 0.267610
vt 0.378458 0.267610
vt 0.378458 0.236617
vt 0.758747 0.236617
vt 0.378458 0.202180
vt 0.758747 0.202180
vt 0.758747 0.165621
vt 0.378458 0.165621
vt 0.758747 0.128346
vt 0.378458 0.128346
vt 0.378458 0.091788
vt 0.758747 0.091788
vt 0.378458 0.057350
vt 0.758747 0.057350
vt 0.758747 0.026357
vt 0.378458 0.026357
vt 0.758747 0.000000
vt 0.378458 0.672425
vt 0.758747 0.672425
vt 0.378458 0.703418
vt 0.758747 0.703418
vt 0.758747 0.737856
vt 0.378458 0.737856
vt 0.758747 0.774414
vt 0.378458 0.774414
vt 0.378458 0.811689
vt 0.758747 0.811689
vt 0.758747 0.848248
vt 0.378458 0.848248
vt 0.758747 0.882685
vt 0.378458 0.882685
vt 0.378458 0.913678
vt 0.758747 0.913678
vt 0.378458 0.940036
vt 0.758747 0.646068
vt 0.378458 0.646068
vt 0.758747 0.615075
vt 0.207866 0.378458
vt 0.170592 0.378458
vt 0.021537 0.278863
vt 0.758747 0.580637
vt 0.378458 0.580637
vt 0.378458 0.615075
vt 0.207867 0.756916
vt 0.170592 0.756916
vt 0.244425 0.749644
vt 0.758747 0.378458
vt 0.068602 0.420703
vt 0.099595 0.399994
vt 0.278862 0.021536
vt 0.207866 0.000000
vt 0.378458 0.586324
vt 0.371186 0.622883
vt 0.371186 0.512491
vt 0.356922 0.099595
vt 0.371186 0.134033
vt 0.378458 0.170592
vt 0.000000 0.586324
vt 0.000000 0.549050
vt 0.007272 0.512491
vt 0.000000 0.207867
vt 0.000000 0.170592
vt 0.007272 0.134033
vt 0.068603 0.336213
vt 0.042245 0.309856
vt 0.244425 0.385730
vt 0.309855 0.420703
vt 0.134033 0.385730
vt 0.099596 0.356922
vt 0.336213 0.688313
vt 0.021536 0.099596
vt 0.042245 0.068603
vt 0.068602 0.042245
vt 0.134033 0.007272
vt 0.378458 0.000000
vt 0.170591 0.000000
vt 0.758747 0.940036
vt 0.336213 0.068603
vt 0.309855 0.042245
vt 0.134033 0.371186
vt 0.378458 0.207866
vt 0.278863 0.356922
vt 0.336213 0.309855
vt 0.309855 0.336213
vt 0.356921 0.278863
vt 0.371186 0.244425
vt 0.244425 0.371186
vt 0.758747 0.647900
vt 0.134033 0.749644
vt 0.099596 0.735380
vt 0.068603 0.714671
vt 0.042245 0.688313
vt 0.021536 0.657320
vt 0.007272 0.622883
vt 0.021536 0.478053
vt 0.042245 0.447061
vt 0.378458 0.549050
vt 0.007272 0.244425
vt 0.278863 0.399994
vt 0.278862 0.735380
vt 0.336213 0.447060
vt 0.356922 0.478053
vt 0.309855 0.714671
vt 0.356921 0.657321
vt 0.244425 0.007272
vt 0.099595 0.021536
vn 0.098017 0.000000 -0.995185
vn 0.290285 0.000000 -0.956940
vn 0.471396 0.000000 -0.881921
vn 0.634393 0.000000 -0.773010
vn 0.773010 0.000000 -0.634393
vn 0.881921 0.000000 -0.471397
vn 0.956940 0.000000 -0.290285
vn 0.995185 0.000000 -0.098017
vn 0.995185 0.000000 0.098017
vn 0.956940 0.000000 0.290285
vn 0.881921 0.000000 0.471396
vn 0.773010 0.000000 0.634393
vn 0.634393 0.000000 0.773011
vn 0.471397 0.000000 0.881921
vn 0.290285 0.000000 0.956940
vn 0.098017 0.000000 0.995185
vn -0.098018 0.000000 0.995185
vn -0.290285 0.000000 0.956940
vn -0.471397 0.000000 0.881921
vn -0.634394 0.000000 0.773010
vn -0.773011 0.000000 0.634393
vn -0.881922 0.000000 0.471396
vn -0.956941 0.000000 0.290284
vn -0.995185 0.000000 0.098016
vn -0.995185 0.000000 -0.098018
vn -0.956940 0.000000 -0.290286
vn -0.881921 0.000000 -0.471398
vn -0.773009 0.000000 -0.634395
vn -0.634392 0.000000 -0.773011
vn -0.471395 0.000000 -0.881922
vn 0.000000 1.000000 -0.000002
vn -0.098017 0.000000 -0.995185
vn -0.290283 0.000000 -0.956941
vn 0.000000 -1.000000 0.000000
vn 0.471397 0.000000 -0.881921
vn 0.881921 0.000000 -0.471396
vn 0.290284 0.000000 0.956941
vn 0.634394 0.000000 0.773010
vn 0.000000 1.000000 0.000000
vn -0.098017 0.000000 0.995185
vn 0.000000 -1.000000 0.000001
vn 0.000000 1.000000 0.000001
vn 0.000000 1.000000 0.000004
vn -0.773010 0.000000 -0.634394
vn 0.000000 1.000000 -0.000001
vn 0.000000 1.000000 -0.000004
vn -0.098016 0.000000 -0.995185
vn 0.000000 -1.000000 -0.000002
vn 0.000000 -1.000000 -0.000001
vn 0.000000 -1.000000 0.000004
vn 0.000000 -1.000000 -0.000005
s off
f 1/1/1 2/2/1 4/3/1
f 3/4/2 4/3/2 6/5/2
f 5/6/3 6/5/3 8/7/3
f 7/8/4 8/7/4 10/9/4
f 9/10/5 10/9/5 12/11/5
f 11/12/6 12/13/6 14/14/6
f 13/15/7 14/14/7 16/16/7
f 15/17/8 16/16/8 18/18/8
f 17/19/9 18/18/9 20/20/9
f 19/21/10 20/20/10 21/22/10
f 21/22/11 22/23/11 24/24/11
f 23/25/12 24/24/12 25/26/12
f 25/26/13 26/27/13 28/28/13
f 27/29/14 28/28/14 30/30/14
f 29/31/15 30/30/15 31/32/15
f 31/32/16 32/33/16 33/34/16
f 33/34/17 34/35/17 36/36/17
f 35/37/18 36/36/18 38/38/18
f 37/39/19 38/38/19 39/40/19
f 39/40/20 40/41/20 41/42/20
f 41/43/21 42/44/21 43/45/21
f 43/45/22 44/46/22 46/47/22
f 45/48/23 46/47/23 48/49/23
f 47/50/24 48/49/24 49/51/24
f 49/51/25 50/52/25 52/53/25
f 51/54/26 52/53/26 54/55/26
f 53/56/27 54/55/27 55/57/27
f 55/57/28 56/58/28 57/59/28
f 57/44/29 58/43/29 59/60/29
f 59/60/30 60/61/30 61/62/30
f 6/63/31 4/64/31 58/65/31
f 63/66/32 64/67/32 2/2/32
f 61/62/33 62/68/33 64/67/33
f 1/69/34 3/70/34 63/71/34
f 3/4/1 1/1/1 4/3/1
f 5/6/2 3/4/2 6/5/2
f 7/8/35 5/6/35 8/7/35
f 9/10/4 7/8/4 10/9/4
f 11/72/5 9/10/5 12/11/5
f 13/15/36 11/12/36 14/14/36
f 15/17/7 13/15/7 16/16/7
f 17/19/8 15/17/8 18/18/8
f 19/21/9 17/19/9 20/20/9
f 30/30/37 32/33/37 31/32/37
f 23/25/11 21/22/11 24/24/11
f 48/49/24 50/52/24 49/51/24
f 27/29/38 25/26/38 28/28/38
f 29/31/14 27/29/14 30/30/14
f 27/73/34 29/74/34 63/71/34
f 32/75/39 6/63/39 36/76/39
f 35/37/40 33/34/40 36/36/40
f 37/39/18 35/37/18 38/38/18
f 51/77/34 53/78/34 47/79/34
f 42/44/21 44/46/21 43/45/21
f 26/80/39 24/81/39 22/82/39
f 45/48/22 43/45/22 46/47/22
f 47/50/23 45/48/23 48/49/23
f 17/83/34 19/84/34 21/85/34
f 51/54/25 49/51/25 52/53/25
f 53/56/26 51/54/26 54/55/26
f 54/86/39 52/87/39 50/88/39
f 58/43/29 60/61/29 59/60/29
f 38/38/19 40/41/19 39/40/19
f 20/20/10 22/23/10 21/22/10
f 62/89/39 60/90/39 58/65/39
f 37/91/41 41/92/41 31/93/41
f 4/64/42 64/94/42 58/65/42
f 64/94/39 62/89/39 58/65/39
f 6/63/39 58/65/39 54/86/39
f 57/95/34 41/92/34 53/78/34
f 6/63/39 54/86/39 50/88/39
f 60/61/30 62/68/30 61/62/30
f 50/88/39 48/96/39 6/63/39
f 48/96/39 46/97/39 6/63/39
f 46/97/39 44/98/39 6/63/39
f 6/63/39 44/98/39 40/99/39
f 40/41/20 42/100/20 41/42/20
f 40/99/43 38/101/43 36/76/43
f 6/63/39 40/99/39 36/76/39
f 56/58/44 58/102/44 57/59/44
f 28/103/39 32/75/39 30/104/39
f 32/75/45 28/103/45 22/82/45
f 4/64/46 2/105/46 64/94/46
f 28/103/39 26/80/39 22/82/39
f 20/106/39 32/75/39 22/82/39
f 10/107/39 14/108/39 12/109/39
f 10/107/39 16/110/39 14/108/39
f 18/111/42 32/75/42 20/106/42
f 16/110/39 32/75/39 18/111/39
f 10/107/39 32/75/39 16/110/39
f 8/112/39 6/63/39 10/107/39
f 24/24/12 26/113/12 25/26/12
f 1/1/47 63/66/47 2/2/47
f 63/66/33 61/62/33 64/67/33
f 3/70/34 5/114/34 63/71/34
f 5/114/34 7/115/34 63/71/34
f 7/115/34 9/116/34 63/71/34
f 9/116/48 11/117/48 63/71/48
f 11/117/34 13/118/34 63/71/34
f 63/71/34 13/118/34 21/85/34
f 32/33/16 34/35/16 33/34/16
f 13/118/34 15/119/34 21/85/34
f 15/119/34 17/83/34 21/85/34
f 21/85/49 23/120/49 63/71/49
f 23/120/34 25/121/34 63/71/34
f 49/122/34 51/77/34 47/79/34
f 25/121/34 27/73/34 63/71/34
f 58/65/39 56/123/39 54/86/39
f 35/63/50 31/93/50 33/64/50
f 29/74/34 31/93/34 41/92/34
f 6/63/39 32/75/39 10/107/39
f 41/92/34 37/91/34 39/124/34
f 35/63/51 37/91/51 31/93/51
f 61/125/34 63/71/34 29/74/34
f 47/79/34 43/126/34 45/127/34
f 41/92/34 61/125/34 29/74/34
f 61/125/34 41/92/34 57/95/34
f 53/78/34 43/126/34 47/79/34
f 59/128/34 61/125/34 57/95/34
f 54/55/27 56/58/27 55/57/27
f 55/129/34 57/95/34 53/78/34
f 36/76/43 34/130/43 32/75/43
f 43/126/34 53/78/34 41/92/34
f 44/98/39 42/131/39 40/99/39
